<?xml version="1.0" standalone="no"?>
<!DOCTYPE svg PUBLIC "-//W3C//DTD SVG 20010904//EN"
 "http://www.w3.org/TR/2001/REC-SVG-20010904/DTD/svg10.dtd">
<svg version="1.0" xmlns="http://www.w3.org/2000/svg"
 width="2637.000000pt" height="2637.000000pt" viewBox="0 0 2637.000000 2637.000000"
 preserveAspectRatio="xMidYMid meet">
<metadata>
Created by potrace 1.14, written by Peter Selinger 2001-2017
</metadata>
<g transform="translate(0.000000,2637.000000) scale(0.100000,-0.100000)"
fill="#000000" stroke="none">
<path d="M0 13185 l0 -4545 1818 0 1818 0 0 4545 0 4545 -1818 0 -1818 0 0
-4545z"/>
<path d="M4849 17713 c0 -10 -1 -2055 -2 -4546 l-2 -4527 1820 2 1820 3 0
4540 -1 4540 -1817 3 c-1726 2 -1817 1 -1818 -15z"/>
<path d="M9699 17723 c-4 -29 -3 -3623 1 -3624 3 -1 3752 -3 8333 -3 l8327 -2
0 46 c1 59 1 3515 0 3558 l0 32 -8330 0 c-4581 0 -8330 -3 -8331 -7z"/>
<path d="M9699 12271 c-3 -18 -4 -3608 -1 -3618 3 -10 1679 -13 8333 -13
l8329 0 0 38 c1 48 1 3505 0 3558 l0 40 -8330 0 c-4581 0 -8330 -2 -8331 -5z"/>
</g>
</svg>
